<svg height="512pt" viewBox="0 0 512 512" width="512pt" xmlns="http://www.w3.org/2000/svg">
    <path d="m504.5 124.25c4.140625 0 7.5-3.355469 7.5-7.5v-109.25c0-4.144531-3.359375-7.5-7.5-7.5h-357.75c-4.140625 0-7.5 3.355469-7.5 7.5s3.359375 7.5 7.5 7.5h101.75v233.5h-233.5v-101.75c0-4.140625-3.359375-7.5-7.5-7.5s-7.5 3.359375-7.5 7.5v357.75c0 4.144531 3.359375 7.5 7.5 7.5h357.75c4.140625 0 7.5-3.355469 7.5-7.5s-3.359375-7.5-7.5-7.5h-101.75v-233.5h233.5v233.5h-101.75c-4.140625 0-7.5 3.355469-7.5 7.5s3.359375 7.5 7.5 7.5h109.25c4.140625 0 7.5-3.355469 7.5-7.5v-357.75c0-4.140625-3.359375-7.5-7.5-7.5s-7.5 3.359375-7.5 7.5v101.75h-233.5v-233.5h233.5v101.75c0 4.144531 3.359375 7.5 7.5 7.5zm-489.5 139.25h233.5v233.5h-233.5zm0 0"/>
    <path d="m432.578125 244.808594c4.140625 0 7.5-3.359375 7.5-7.5v-18.941406l26.789063-26.789063h18.941406c4.140625 0 7.5-3.355469 7.5-7.5 0-4.140625-3.359375-7.5-7.5-7.5h-22.046875c-1.988281 0-3.898438.789063-5.300781 2.195313l-31.183594 31.1875c-1.410156 1.40625-2.199219 3.3125-2.199219 5.300781v22.046875c0 4.140625 3.359375 7.5 7.5 7.5zm0 0"/>
    <path d="m327.921875 244.808594c4.140625 0 7.5-3.359375 7.5-7.5v-22.046875c0-1.988281-.789063-3.894531-2.195313-5.304688l-31.183593-31.183593c-1.40625-1.40625-3.316407-2.195313-5.304688-2.195313h-22.046875c-4.140625 0-7.5 3.355469-7.5 7.5s3.359375 7.5 7.5 7.5h18.941406l26.789063 26.789063v18.941406c0 4.140625 3.359375 7.5 7.5 7.5zm0 0"/>
    <path d="m274.691406 86.921875h22.046875c1.988281 0 3.898438-.789063 5.300781-2.195313l31.183594-31.183593c1.410156-1.40625 2.199219-3.316407 2.199219-5.304688v-22.046875c0-4.140625-3.359375-7.5-7.5-7.5-4.144531 0-7.5 3.359375-7.5 7.5v18.941406l-26.789063 26.789063h-18.941406c-4.140625 0-7.5 3.355469-7.5 7.5 0 4.140625 3.359375 7.5 7.5 7.5zm0 0"/>
    <path d="m485.808594 71.921875h-18.941406l-26.789063-26.789063v-18.941406c0-4.140625-3.359375-7.5-7.5-7.5s-7.5 3.359375-7.5 7.5v22.046875c0 1.988281.789063 3.894531 2.195313 5.304688l31.183593 31.183593c1.40625 1.40625 3.316407 2.195313 5.304688 2.195313h22.046875c4.140625 0 7.5-3.355469 7.5-7.5s-3.359375-7.5-7.5-7.5zm0 0"/>
    <path d="m358.628906 186.355469 4.355469-4.359375c9.519531-9.515625 25.007813-9.515625 34.527344 0l4.355469 4.359375c1.464843 1.464843 3.386718 2.195312 5.304687 2.195312s3.839844-.730469 5.304687-2.195312l22.375-22.378907c1.410157-1.40625 2.199219-3.3125 2.199219-5.304687 0-1.988281-.792969-3.894531-2.199219-5.304687l-4.355468-4.355469c-9.519532-9.519531-9.519532-25.007813 0-34.523438l4.355468-4.359375c1.40625-1.40625 2.199219-3.3125 2.199219-5.304687 0-1.988281-.789062-3.894531-2.199219-5.300781l-22.375-22.378907c-2.929687-2.929687-7.679687-2.929687-10.609374 0l-4.355469 4.355469c-9.519531 9.519531-25.007813 9.519531-34.527344 0l-4.355469-4.355469c-2.929687-2.929687-7.675781-2.929687-10.605468 0l-22.378907 22.378907c-1.40625 1.40625-2.195312 3.3125-2.195312 5.300781 0 1.992187.789062 3.898437 2.195312 5.304687l4.359375 4.359375c9.519532 9.519531 9.519532 25.003907 0 34.523438l-4.359375 4.355469c-1.40625 1.40625-2.195312 3.316406-2.195312 5.304687 0 1.992187.789062 3.898437 2.195312 5.304687l22.378907 22.378907c2.929687 2.925781 7.675781 2.925781 10.605468 0zm-17.089844-81.511719 11.804688-11.804688c15.105469 14.128907 38.707031 14.128907 53.8125 0l11.804688 11.804688c-14.128907 15.105469-14.125 38.707031 0 53.8125l-11.804688 11.804688c-7.550781-7.0625-17.226562-10.59375-26.90625-10.59375s-19.355469 3.527343-26.90625 10.59375l-11.804688-11.804688c14.128907-15.105469 14.125-38.707031 0-53.8125zm0 0"/>
    <path d="m7.5 124.25c4.140625 0 7.5-3.355469 7.5-7.5v-101.75h101.75c4.140625 0 7.5-3.355469 7.5-7.5s-3.359375-7.5-7.5-7.5h-109.25c-4.140625 0-7.5 3.355469-7.5 7.5v109.25c0 4.144531 3.359375 7.5 7.5 7.5zm0 0"/>
    <path d="m237.308594 176.578125h-22.046875c-1.988281 0-3.898438.789063-5.300781 2.195313l-31.183594 31.183593c-1.410156 1.40625-2.199219 3.316407-2.199219 5.304688v22.046875c0 4.140625 3.359375 7.5 7.5 7.5 4.144531 0 7.5-3.359375 7.5-7.5v-18.941406l26.789063-26.789063h18.941406c4.140625 0 7.5-3.355469 7.5-7.5 0-4.140625-3.359375-7.5-7.5-7.5zm0 0"/>
    <path d="m79.421875 244.808594c4.140625 0 7.5-3.359375 7.5-7.5v-22.046875c0-1.988281-.789063-3.894531-2.195313-5.304688l-31.183593-31.183593c-1.40625-1.40625-3.316407-2.195313-5.304688-2.195313h-22.046875c-4.140625 0-7.5 3.355469-7.5 7.5s3.359375 7.5 7.5 7.5h18.941406l26.789063 26.789063v18.941406c0 4.140625 3.359375 7.5 7.5 7.5zm0 0"/>
    <path d="m26.191406 86.921875h22.046875c1.988281 0 3.898438-.789063 5.300781-2.195313l31.183594-31.183593c1.410156-1.40625 2.199219-3.316407 2.199219-5.304688v-22.046875c0-4.140625-3.359375-7.5-7.5-7.5-4.144531 0-7.5 3.359375-7.5 7.5v18.941406l-26.789063 26.789063h-18.941406c-4.140625 0-7.5 3.355469-7.5 7.5 0 4.140625 3.359375 7.5 7.5 7.5zm0 0"/>
    <path d="m184.078125 18.691406c-4.140625 0-7.5 3.359375-7.5 7.5v22.046875c0 1.988281.789063 3.894531 2.195313 5.304688l31.183593 31.183593c1.40625 1.40625 3.316407 2.195313 5.304688 2.195313h22.046875c4.140625 0 7.5-3.355469 7.5-7.5s-3.359375-7.5-7.5-7.5h-18.941406l-26.789063-26.789063v-18.941406c0-4.140625-3.359375-7.5-7.5-7.5zm0 0"/>
    <path d="m153.371094 77.144531-4.355469 4.359375c-9.523437 9.515625-25.007813 9.515625-34.527344 0l-4.355469-4.359375c-2.929687-2.925781-7.679687-2.925781-10.609374 0l-22.378907 22.378907c-1.40625 1.40625-2.195312 3.3125-2.195312 5.300781 0 1.992187.789062 3.898437 2.195312 5.304687l4.359375 4.359375c9.519532 9.519531 9.519532 25.003907 0 34.523438l-4.359375 4.355469c-1.40625 1.40625-2.195312 3.316406-2.195312 5.304687 0 1.992187.789062 3.898437 2.195312 5.304687l22.378907 22.378907c2.929687 2.925781 7.675781 2.925781 10.605468 0l4.355469-4.359375c9.523437-9.515625 25.007813-9.515625 34.527344 0l4.355469 4.359375c1.464843 1.464843 3.386718 2.195312 5.304687 2.195312s3.839844-.730469 5.304687-2.195312l22.375-22.378907c1.410157-1.40625 2.199219-3.3125 2.199219-5.304687 0-1.988281-.792969-3.894531-2.199219-5.304687l-4.355468-4.355469c-9.519532-9.519531-9.519532-25.007813 0-34.523438l4.355468-4.359375c1.40625-1.40625 2.199219-3.3125 2.199219-5.304687 0-1.988281-.789062-3.894531-2.199219-5.300781l-22.375-22.378907c-2.929687-2.925781-7.675781-2.925781-10.605468 0zm17.089844 81.511719-11.804688 11.804688c-7.550781-7.0625-17.226562-10.59375-26.90625-10.59375s-19.355469 3.527343-26.90625 10.59375l-11.804688-11.804688c14.128907-15.105469 14.125-38.707031 0-53.8125l11.804688-11.804688c15.105469 14.128907 38.707031 14.128907 53.8125 0l11.804688 11.804688c-14.128907 15.105469-14.125 38.707031 0 53.8125zm0 0"/>
    <path d="m485.808594 425.078125h-22.046875c-1.988281 0-3.898438.789063-5.300781 2.195313l-31.183594 31.183593c-1.410156 1.40625-2.199219 3.316407-2.199219 5.304688v22.046875c0 4.140625 3.359375 7.5 7.5 7.5 4.144531 0 7.5-3.359375 7.5-7.5v-18.941406l26.789063-26.789063h18.941406c4.140625 0 7.5-3.355469 7.5-7.5 0-4.140625-3.359375-7.5-7.5-7.5zm0 0"/>
    <path d="m327.921875 493.308594c4.140625 0 7.5-3.359375 7.5-7.5v-22.046875c0-1.988281-.789063-3.894531-2.195313-5.304688l-31.183593-31.183593c-1.40625-1.40625-3.316407-2.195313-5.304688-2.195313h-22.046875c-4.140625 0-7.5 3.355469-7.5 7.5s3.359375 7.5 7.5 7.5h18.941406l26.789063 26.789063v18.941406c0 4.140625 3.359375 7.5 7.5 7.5zm0 0"/>
    <path d="m274.691406 335.421875h22.046875c1.988281 0 3.898438-.789063 5.300781-2.195313l31.183594-31.183593c1.410156-1.40625 2.199219-3.316407 2.199219-5.304688v-22.046875c0-4.140625-3.359375-7.5-7.5-7.5-4.144531 0-7.5 3.359375-7.5 7.5v18.941406l-26.789063 26.789063h-18.941406c-4.140625 0-7.5 3.355469-7.5 7.5 0 4.140625 3.359375 7.5 7.5 7.5zm0 0"/>
    <path d="m432.578125 267.191406c-4.140625 0-7.5 3.359375-7.5 7.5v22.046875c0 1.988281.789063 3.894531 2.195313 5.304688l31.183593 31.183593c1.40625 1.40625 3.316407 2.195313 5.304688 2.195313h22.046875c4.140625 0 7.5-3.355469 7.5-7.5s-3.359375-7.5-7.5-7.5h-18.941406l-26.789063-26.789063v-18.941406c0-4.140625-3.359375-7.5-7.5-7.5zm0 0"/>
    <path d="m358.628906 434.855469 4.355469-4.359375c9.519531-9.515625 25.007813-9.515625 34.527344 0l4.355469 4.359375c1.464843 1.464843 3.386718 2.195312 5.304687 2.195312s3.839844-.730469 5.304687-2.195312l22.375-22.378907c1.410157-1.40625 2.199219-3.3125 2.199219-5.304687 0-1.988281-.792969-3.894531-2.199219-5.304687l-4.355468-4.355469c-9.519532-9.519531-9.519532-25.007813 0-34.523438l4.355468-4.359375c1.40625-1.40625 2.199219-3.3125 2.199219-5.304687 0-1.988281-.789062-3.894531-2.199219-5.300781l-22.375-22.378907c-2.929687-2.929687-7.679687-2.929687-10.609374 0l-4.355469 4.355469c-9.519531 9.519531-25.007813 9.519531-34.527344 0l-4.355469-4.355469c-2.929687-2.929687-7.675781-2.929687-10.605468 0l-22.378907 22.378907c-1.40625 1.40625-2.195312 3.3125-2.195312 5.300781 0 1.992187.789062 3.898437 2.195312 5.304687l4.359375 4.359375c9.519532 9.519531 9.519532 25.003907 0 34.523438l-4.359375 4.355469c-1.40625 1.40625-2.195312 3.316406-2.195312 5.304687 0 1.992187.789062 3.898437 2.195312 5.304687l22.378907 22.378907c2.929687 2.925781 7.675781 2.925781 10.605468 0zm-17.089844-81.511719 11.804688-11.804688c15.105469 14.128907 38.707031 14.128907 53.8125 0l11.804688 11.804688c-14.128907 15.105469-14.125 38.707031 0 53.8125l-11.804688 11.804688c-7.550781-7.0625-17.226562-10.59375-26.90625-10.59375s-19.355469 3.527343-26.90625 10.59375l-11.804688-11.804688c14.128907-15.105469 14.125-38.707031 0-53.8125zm0 0"/>
    <path d="m237.308594 425.078125h-22.046875c-1.988281 0-3.898438.789063-5.300781 2.195313l-31.183594 31.183593c-1.410156 1.40625-2.199219 3.316407-2.199219 5.304688v22.046875c0 4.140625 3.359375 7.5 7.5 7.5 4.144531 0 7.5-3.359375 7.5-7.5v-18.941406l26.789063-26.789063h18.941406c4.140625 0 7.5-3.355469 7.5-7.5 0-4.140625-3.359375-7.5-7.5-7.5zm0 0"/>
    <path d="m53.542969 427.273438c-1.40625-1.40625-3.316407-2.195313-5.304688-2.195313h-22.046875c-4.140625 0-7.5 3.355469-7.5 7.5s3.359375 7.5 7.5 7.5h18.941406l26.789063 26.789063v18.941406c0 4.140625 3.359375 7.5 7.5 7.5s7.5-3.359375 7.5-7.5v-22.046875c0-1.988281-.789063-3.898438-2.195313-5.304688zm0 0"/>
    <path d="m26.191406 335.421875h22.046875c1.988281 0 3.898438-.789063 5.300781-2.195313l31.183594-31.183593c1.410156-1.40625 2.199219-3.316407 2.199219-5.304688v-22.046875c0-4.140625-3.359375-7.5-7.5-7.5-4.144531 0-7.5 3.359375-7.5 7.5v18.941406l-26.789063 26.789063h-18.941406c-4.140625 0-7.5 3.355469-7.5 7.5 0 4.140625 3.359375 7.5 7.5 7.5zm0 0"/>
    <path d="m237.308594 320.421875h-18.941406l-26.789063-26.789063v-18.941406c0-4.140625-3.359375-7.5-7.5-7.5s-7.5 3.359375-7.5 7.5v22.046875c0 1.988281.789063 3.898438 2.195313 5.304688l31.183593 31.183593c1.40625 1.40625 3.316407 2.195313 5.304688 2.195313h22.046875c4.140625 0 7.5-3.355469 7.5-7.5 0-4.140625-3.359375-7.5-7.5-7.5zm0 0"/>
    <path d="m188.550781 407.175781c0-1.992187-.789062-3.898437-2.195312-5.304687l-4.359375-4.359375c-9.519532-9.519531-9.519532-25.003907 0-34.523438l4.359375-4.355469c1.40625-1.40625 2.195312-3.316406 2.195312-5.304687 0-1.992187-.789062-3.898437-2.195312-5.304687l-22.378907-22.378907c-2.929687-2.925781-7.675781-2.925781-10.605468 0l-4.355469 4.359375c-9.523437 9.515625-25.007813 9.515625-34.527344 0l-4.355469-4.359375c-2.929687-2.925781-7.679687-2.925781-10.609374 0l-22.375 22.378907c-1.410157 1.40625-2.199219 3.3125-2.199219 5.304687 0 1.988281.792969 3.894531 2.199219 5.304687l4.355468 4.355469c9.519532 9.519531 9.519532 25.007813 0 34.523438l-4.355468 4.359375c-1.40625 1.40625-2.199219 3.3125-2.199219 5.304687 0 1.988281.789062 3.894531 2.199219 5.300781l22.375 22.378907c2.929687 2.929687 7.679687 2.929687 10.609374 0l4.355469-4.355469c9.519531-9.519531 25.007813-9.519531 34.527344 0l4.355469 4.355469c1.464844 1.464843 3.382812 2.195312 5.304687 2.195312 1.917969 0 3.835938-.730469 5.300781-2.195312l22.378907-22.378907c1.40625-1.40625 2.195312-3.3125 2.195312-5.300781zm-29.894531 11.785157c-7.550781-7.0625-17.226562-10.59375-26.90625-10.59375s-19.355469 3.527343-26.90625 10.59375l-11.804688-11.804688c14.128907-15.105469 14.125-38.707031 0-53.8125l11.804688-11.804688c15.105469 14.128907 38.707031 14.128907 53.8125 0l11.804688 11.804688c-14.128907 15.105469-14.125 38.707031 0 53.8125zm0 0"/>
</svg>